<?xml version="1.0"?>
<svg width="100" height="100" xmlns="http://www.w3.org/2000/svg" xmlns:svg="http://www.w3.org/2000/svg">
 <g>
  <title>Layer 1</title>
  <path fill="#ff0000" d="m81.9,2l-63.8,0c-6.1,0 -11,5 -11,11l0,54.2c0,6.1 4.9,11 11,11l17.4,0l14.5,19.8l14.5,-19.7l17.4,0c6.1,0 11,-4.9 11,-11l0,-54.3c0,-6 -4.9,-11 -11,-11zm-35.3,17.1l6.8,0c0.8,0 1.4,0.7 1.4,1.4l-0.7,27.6c0,0.7 -0.6,1.2 -1.2,1.2l-5.7,0c-0.7,0 -1.2,-0.5 -1.2,-1.2l-0.7,-27.6c-0.1,-0.8 0.5,-1.4 1.3,-1.4zm-1.4,36.5c0,-1.2 0.9,-2.1 2.1,-2.1l5.4,0c1.2,0 2.1,0.9 2.1,2.1l0,3.5c0,1.2 -0.9,2.1 -2.1,2.1l-5.4,0c-1.2,0 -2.1,-0.9 -2.1,-2.1l0,-3.5z" id="svg_1"/>
 </g>
</svg>