<svg xmlns="http://www.w3.org/2000/svg" xmlns:xlink="http://www.w3.org/1999/xlink" version="1.1" x="0px" y="0px" viewBox="0 0 100 125" enable-background="new 0 0 100 100" xml:space="preserve"><path d="M81.9,2H18.1C12,2,7.1,7,7.1,13v54.2c0,6.1,4.9,11,11,11h17.4L50,98l14.5-19.7h17.4c6.1,0,11-4.9,11-11V13  C92.9,7,88,2,81.9,2z M46.6,19.1h6.8c0.8,0,1.4,0.7,1.4,1.4l-0.7,27.6c0,0.7-0.6,1.2-1.2,1.2h-5.7c-0.7,0-1.2-0.5-1.2-1.2l-0.7-27.6  C45.2,19.7,45.8,19.1,46.6,19.1z M45.2,55.6c0-1.2,0.9-2.1,2.1-2.1h5.4c1.2,0,2.1,0.9,2.1,2.1v3.5c0,1.2-0.9,2.1-2.1,2.1h-5.4  c-1.2,0-2.1-0.9-2.1-2.1V55.6z"/><text x="0" y="115" fill="#000000" font-size="5px" font-weight="bold" font-family="'Helvetica Neue', Helvetica, Arial-Unicode, Arial, Sans-serif">Created by Gregor Črešnar</text><text x="0" y="120" fill="#000000" font-size="5px" font-weight="bold" font-family="'Helvetica Neue', Helvetica, Arial-Unicode, Arial, Sans-serif">from the Noun Project</text></svg>