<svg xmlns="http://www.w3.org/2000/svg" xmlns:xlink="http://www.w3.org/1999/xlink" version="1.1" x="0px" y="0px" viewBox="0 0 90 112.5" enable-background="new 0 0 90 90" xml:space="preserve"><g><path d="M76.575,11.068C68.417,8,60,12.75,60,12.75l-8.466-2.942c-5.035,3.04-7.589,6.84-8.759,10.567H30.114   c0,0-5,5.231-8.751,7.731v11.082c-6.902,0.731-11.876,5.169-11.876,5.169l-0.03,9.376c0,0-6.289,3.933-6.376,13.099   c-0.091,9.631,8.815,17.44,19.69,17.44c10.874,0,19.145-7.824,19.689-17.44c0.458-8.083-6.407-13.099-6.407-13.099v-9.376   c-3.295-2.946-6.59-4.603-9.683-5.169l-0.005-7.645c0,0,5.79-2.395,7.039-6.145h8.527c-0.191,5.461,1.8,9.802,1.8,9.802   l8.929,2.744c1.791,4.481,5.226,8.141,9.882,9.917c9.336,3.562,20.045-1.791,23.921-11.949   C90.336,25.752,85.927,14.585,76.575,11.068z M38.883,66.833c0,7.883-7.214,14.272-16.114,14.272S6.656,74.716,6.656,66.833   s7.214-14.271,16.113-14.271S38.883,58.95,38.883,66.833z M31.245,25.948c-0.631,0.533-1.3,0.929-1.926,1.171   c-0.329,0.701-0.904,1.452-1.687,2.113c-1.669,1.41-3.6,1.87-4.314,1.026c-0.713-0.844,0.063-2.672,1.731-4.083   c0.632-0.534,1.368-1.02,1.995-1.262c0.328-0.7,0.836-1.361,1.618-2.022c1.669-1.41,3.601-1.87,4.314-1.025   C33.689,22.709,32.914,24.538,31.245,25.948z M83.391,34.742c-3.171,8.316-11.937,12.694-19.576,9.78   c-7.64-2.915-11.262-12.017-8.091-20.332c3.172-8.314,11.938-12.693,19.575-9.779C82.939,17.325,86.563,26.426,83.391,34.742z"/><path d="M29.363,25.149c-0.443-0.525-1.338-0.965-2.207-0.264c-0.813,0.813-0.604,1.641-0.226,2.089   c0.444,0.524,1.544,0.799,2.389,0.145C29.932,26.315,29.742,25.598,29.363,25.149z"/></g><text x="0" y="105" fill="#000000" font-size="5px" font-weight="bold" font-family="'Helvetica Neue', Helvetica, Arial-Unicode, Arial, Sans-serif">Created by Mattijs Dekkers</text><text x="0" y="110" fill="#000000" font-size="5px" font-weight="bold" font-family="'Helvetica Neue', Helvetica, Arial-Unicode, Arial, Sans-serif">from the Noun Project</text></svg>